<svg width="219" height="58" viewBox="0 0 219 58" fill="none" xmlns="http://www.w3.org/2000/svg">
<path d="M10.8682 43.5371C9.33822 43.5371 7.94596 43.1699 6.69141 42.4355C5.46745 41.7012 4.41178 40.6914 3.52441 39.4062C2.66764 38.1211 2.00977 36.6217 1.55078 34.9082C1.1224 33.1641 0.938802 31.3128 1 29.3545C1.0612 27.5186 1.29069 25.5296 1.68848 23.3877C2.11686 21.2458 2.71354 19.1038 3.47852 16.9619C4.24349 14.7894 5.16146 12.7087 6.23242 10.7197C7.33398 8.7002 8.58854 6.92546 9.99609 5.39551C11.4036 3.86556 12.9642 2.6416 14.6777 1.72363C16.3913 0.775065 18.2731 0.300781 20.3232 0.300781C21.5778 0.300781 22.6335 0.560872 23.4902 1.08105C24.3776 1.57064 25.0814 2.22852 25.6016 3.05469C26.1523 3.88086 26.5348 4.81413 26.749 5.85449C26.9632 6.89486 27.055 7.95052 27.0244 9.02148C26.9632 10.0312 26.8102 11.0104 26.5654 11.959C26.3512 12.9076 26.0299 13.7643 25.6016 14.5293C25.2038 15.2637 24.6989 15.8604 24.0869 16.3193C23.5055 16.7477 22.8324 16.9619 22.0674 16.9619C21.7002 16.9313 21.3483 16.8089 21.0117 16.5947C20.7057 16.4111 20.3844 16.1357 20.0479 15.7686C19.7419 15.4014 19.4512 14.8659 19.1758 14.1621C20.002 13.8255 20.6445 13.2441 21.1035 12.418C21.5931 11.5612 21.9603 10.6738 22.2051 9.75586C22.4805 8.71549 22.6641 7.55273 22.7559 6.26758C22.8171 5.01302 22.557 4.09505 21.9756 3.51367C21.3942 2.93229 20.7363 2.6416 20.002 2.6416C18.5638 2.6416 17.0492 3.39128 15.458 4.89062C13.8669 6.38997 12.3828 8.4248 11.0059 10.9951C9.65951 13.5348 8.51204 16.5029 7.56348 19.8994C6.64551 23.2959 6.11003 26.8913 5.95703 30.6855C5.89583 32.3991 6.00293 33.8525 6.27832 35.0459C6.58431 36.2393 6.9974 37.2184 7.51758 37.9834C8.06836 38.7484 8.68034 39.2992 9.35352 39.6357C10.0267 39.9723 10.6999 40.1406 11.373 40.1406C12.444 40.1406 13.4538 39.9111 14.4023 39.4521C15.3509 38.9932 16.2077 38.4271 16.9727 37.7539C17.7682 37.0807 18.4414 36.377 18.9922 35.6426C19.5736 34.9388 20.0173 34.3115 20.3232 33.7607C20.5374 33.363 20.7669 33.1182 21.0117 33.0264C21.2565 32.9346 21.4707 32.9652 21.6543 33.1182C21.8379 33.2406 21.9603 33.4548 22.0215 33.7607C22.0827 34.0361 22.0215 34.3727 21.8379 34.7705C21.3177 35.8109 20.6751 36.8512 19.9102 37.8916C19.1758 38.932 18.3343 39.8652 17.3857 40.6914C16.4678 41.5482 15.458 42.2367 14.3564 42.7568C13.2549 43.277 12.0921 43.5371 10.8682 43.5371ZM50.4785 24.9023C50.6927 24.6576 50.9069 24.5352 51.1211 24.5352C51.3659 24.5046 51.5495 24.5658 51.6719 24.7188C51.8249 24.8411 51.8861 25.04 51.8555 25.3154C51.8555 25.5908 51.7331 25.8968 51.4883 26.2334C50.9069 27.029 50.2337 27.8551 49.4688 28.7119C48.7038 29.5381 47.8776 30.349 46.9902 31.1445C46.1335 31.9401 45.2614 32.6898 44.374 33.3936C43.4867 34.0973 42.6299 34.6787 41.8037 35.1377C40.8857 35.6579 40.1055 35.918 39.4629 35.918C38.8509 35.918 38.2389 35.5202 37.627 34.7246C37.0762 34.0208 36.8008 33.2712 36.8008 32.4756C36.8314 31.6494 37.015 30.6243 37.3516 29.4004C37.5658 28.6354 37.8564 27.7327 38.2236 26.6924C38.6214 25.6214 38.9274 24.5964 39.1416 23.6172C39.3864 22.638 39.4629 21.8118 39.3711 21.1387C39.2793 20.4349 38.8815 20.083 38.1777 20.083C37.6882 20.083 37.1527 20.2513 36.5713 20.5879C36.0205 20.9245 35.4544 21.3682 34.873 21.9189C34.3223 22.4391 33.7868 23.0358 33.2666 23.709C32.7464 24.3822 32.2874 25.04 31.8896 25.6826C31.6449 26.876 31.4001 28.054 31.1553 29.2168C30.9411 30.196 30.7116 31.2669 30.4668 32.4297C30.2526 33.5618 30.0384 34.5716 29.8242 35.459C29.6406 35.612 29.4417 35.7191 29.2275 35.7803C29.0133 35.8415 28.8145 35.8721 28.6309 35.8721C28.4167 35.8721 28.2025 35.8568 27.9883 35.8262C27.7435 35.765 27.514 35.6732 27.2998 35.5508C27.1162 35.4284 26.9326 35.2601 26.749 35.0459C26.5654 34.8623 26.4277 34.6022 26.3359 34.2656C27.7129 28.6048 28.7992 24.0609 29.5947 20.6338C30.3903 17.2067 31.0023 14.5905 31.4307 12.7852C31.9202 10.6432 32.2568 9.15918 32.4404 8.33301C32.5322 7.75163 32.6087 7.18555 32.6699 6.63477C32.7311 6.14518 32.7617 5.6403 32.7617 5.12012C32.7617 4.59993 32.7158 4.12565 32.624 3.69727C32.8688 3.54427 33.1289 3.42188 33.4043 3.33008C33.7103 3.23828 34.001 3.16178 34.2764 3.10059C34.613 3.00879 34.9495 2.93229 35.2861 2.87109C35.6227 2.8099 35.9287 2.7793 36.2041 2.7793C36.4489 2.7793 36.6784 2.8099 36.8926 2.87109C37.1068 2.90169 37.2445 2.99349 37.3057 3.14648C37.4893 3.29948 37.5658 3.60547 37.5352 4.06445C37.5352 4.52344 37.5046 4.99772 37.4434 5.4873C37.321 6.06868 37.1833 6.69596 37.0303 7.36914C36.3877 9.84766 35.6686 12.265 34.873 14.6211C34.0775 16.9466 33.3431 19.4404 32.6699 22.1025C33.0677 21.4906 33.542 20.8633 34.0928 20.2207C34.6436 19.5781 35.2402 18.9967 35.8828 18.4766C36.556 17.9258 37.2598 17.4821 37.9941 17.1455C38.7285 16.7783 39.5088 16.5947 40.335 16.5947C40.7633 16.5947 41.1611 16.6712 41.5283 16.8242C41.9261 16.9466 42.2627 17.1761 42.5381 17.5127C42.8441 17.8187 43.0736 18.2471 43.2266 18.7979C43.3796 19.318 43.4408 19.9759 43.4102 20.7715C43.4102 21.2611 43.349 21.766 43.2266 22.2861C43.1348 22.8063 42.9971 23.3877 42.8135 24.0303C42.6299 24.6423 42.3851 25.3307 42.0791 26.0957C41.8037 26.8607 41.4671 27.748 41.0693 28.7578C40.7939 29.4616 40.5798 30.0583 40.4268 30.5479C40.2738 31.0374 40.3044 31.4658 40.5186 31.833C40.7939 32.3226 41.3294 32.445 42.125 32.2002C42.9512 31.9248 44.1751 31.1292 45.7969 29.8135C46.1641 29.5075 46.5771 29.125 47.0361 28.666C47.4951 28.207 47.9388 27.748 48.3672 27.2891C48.7956 26.7995 49.1934 26.3405 49.5605 25.9121C49.9277 25.4837 50.2337 25.1471 50.4785 24.9023ZM58.7861 7.96582C58.6943 8.30241 58.5107 8.639 58.2354 8.97559C57.9906 9.28158 57.6999 9.54167 57.3633 9.75586C57.0573 9.93945 56.736 10.0618 56.3994 10.123C56.0628 10.1842 55.7874 10.123 55.5732 9.93945C54.9307 9.44987 54.5941 8.92969 54.5635 8.37891C54.5329 7.79753 54.6706 7.26204 54.9766 6.77246C55.2826 6.25228 55.665 5.82389 56.124 5.4873C56.583 5.12012 56.9808 4.90592 57.3174 4.84473C57.654 4.78353 57.9294 4.86003 58.1436 5.07422C58.3883 5.25781 58.5719 5.5179 58.6943 5.85449C58.8167 6.16048 58.8779 6.51237 58.8779 6.91016C58.9085 7.30794 58.8779 7.65983 58.7861 7.96582ZM52.4521 17.7422C52.6051 17.5586 52.8958 17.4056 53.3242 17.2832C53.7526 17.1608 54.1963 17.069 54.6553 17.0078C55.1143 16.916 55.5273 16.8701 55.8945 16.8701C56.2923 16.8395 56.5218 16.8395 56.583 16.8701C56.6136 16.9007 56.5371 17.222 56.3535 17.834C56.1699 18.446 55.9404 19.165 55.665 19.9912C55.3896 20.8174 55.099 21.6742 54.793 22.5615C54.487 23.4183 54.2575 24.1221 54.1045 24.6729C53.9515 25.2236 53.7679 25.8509 53.5537 26.5547C53.3395 27.2279 53.1406 27.901 52.957 28.5742C52.804 29.2168 52.6969 29.8288 52.6357 30.4102C52.5745 30.9915 52.6204 31.4352 52.7734 31.7412C52.9264 32.1084 53.0947 32.3685 53.2783 32.5215C53.4619 32.6439 53.6608 32.7051 53.875 32.7051C54.487 32.7051 55.252 32.3685 56.1699 31.6953C57.1185 31.0221 58.0671 30.2266 59.0156 29.3086C59.9948 28.36 60.8975 27.4115 61.7236 26.4629C62.5498 25.4837 63.1618 24.7035 63.5596 24.1221C63.8044 23.8161 64.0492 23.6172 64.2939 23.5254C64.5693 23.4336 64.7835 23.4489 64.9365 23.5713C65.1201 23.6937 65.2119 23.8926 65.2119 24.168C65.2425 24.4434 65.1507 24.7646 64.9365 25.1318C64.4469 25.9886 63.7279 27.0137 62.7793 28.207C61.8307 29.3698 60.821 30.502 59.75 31.6035C58.679 32.6745 57.6234 33.5924 56.583 34.3574C55.5732 35.1224 54.7471 35.5202 54.1045 35.5508C53.5843 35.5814 53.0641 35.4896 52.5439 35.2754C52.0544 35.0918 51.5954 34.8317 51.167 34.4951C50.7692 34.1279 50.4326 33.7148 50.1572 33.2559C49.8818 32.7663 49.7288 32.2614 49.6982 31.7412C49.6064 30.9762 49.6064 29.9359 49.6982 28.6201C49.79 27.2738 49.9583 25.9121 50.2031 24.5352C50.4479 23.1276 50.7539 21.7965 51.1211 20.542C51.5189 19.2874 51.9626 18.3542 52.4521 17.7422ZM78.5225 23.3877C78.6449 23.2041 78.7979 23.097 78.9814 23.0664C79.1956 23.0052 79.3639 23.0205 79.4863 23.1123C79.6087 23.2041 79.6699 23.3571 79.6699 23.5713C79.7005 23.7855 79.624 24.0762 79.4404 24.4434C78.8285 25.6061 78.0176 26.8607 77.0078 28.207C76.0286 29.5534 74.9883 30.8232 73.8867 32.0166C72.7852 33.1794 71.7142 34.1432 70.6738 34.9082C69.6335 35.6732 68.7614 36.0557 68.0576 36.0557C67.0479 36.0557 66.2064 35.8568 65.5332 35.459C64.86 35.0612 64.3245 34.5716 63.9268 33.9902C63.5596 33.4089 63.2995 32.7816 63.1465 32.1084C62.9935 31.4046 62.9476 30.762 63.0088 30.1807C63.0394 29.6911 63.1465 28.819 63.3301 27.5645C63.5137 26.2793 63.7585 24.8105 64.0645 23.1582C64.3704 21.4753 64.707 19.6852 65.0742 17.7881C65.472 15.8604 65.8851 14.0091 66.3135 12.2344C65.7933 12.2956 65.2731 12.3568 64.7529 12.418C64.2327 12.4792 63.7585 12.5098 63.3301 12.5098C62.3509 12.5098 61.4329 12.4027 60.5762 12.1885C59.6888 11.9437 59.0309 11.7142 58.6025 11.5C58.3577 11.3776 58.2507 11.2093 58.2812 10.9951C58.3118 10.7503 58.4036 10.5208 58.5566 10.3066C58.7096 10.0618 58.9085 9.86296 59.1533 9.70996C59.3675 9.52637 59.5664 9.43457 59.75 9.43457C60.3314 9.49577 60.9587 9.55697 61.6318 9.61816C62.305 9.64876 63.0394 9.64876 63.835 9.61816C64.4163 9.58757 64.9671 9.54167 65.4873 9.48047C66.0381 9.41927 66.5736 9.34277 67.0938 9.25098C67.4915 7.78223 67.874 6.51237 68.2412 5.44141C68.639 4.33984 68.9909 3.57487 69.2969 3.14648C69.3887 2.99349 69.5876 2.87109 69.8936 2.7793C70.2301 2.6569 70.582 2.5804 70.9492 2.5498C71.3164 2.48861 71.6683 2.48861 72.0049 2.5498C72.3415 2.5804 72.5863 2.6875 72.7393 2.87109C72.8923 3.11589 72.9535 3.74316 72.9229 4.75293C72.8923 5.7627 72.724 7.04785 72.418 8.6084C73.7031 8.6084 74.8353 8.6849 75.8145 8.83789C76.8242 8.96029 77.681 9.11328 78.3848 9.29688C79.0885 9.44987 79.6546 9.61816 80.083 9.80176C80.5114 9.95475 80.8327 10.0618 81.0469 10.123C81.2611 10.1842 81.3682 10.3372 81.3682 10.582C81.3988 10.8268 81.3529 11.0869 81.2305 11.3623C81.1387 11.6071 80.9704 11.8213 80.7256 12.0049C80.4808 12.1885 80.2054 12.2497 79.8994 12.1885C79.5934 12.1579 79.2415 12.0967 78.8438 12.0049C78.4766 11.9131 78.0176 11.8366 77.4668 11.7754C76.9466 11.7142 76.3193 11.653 75.585 11.5918C74.8506 11.5306 73.9938 11.5 73.0146 11.5C72.8311 11.5 72.6169 11.5153 72.3721 11.5459C72.1579 11.5459 71.9284 11.5459 71.6836 11.5459C71.5612 12.0355 71.4388 12.5251 71.3164 13.0146C71.2246 13.4736 71.0869 13.9632 70.9033 14.4834C70.5055 15.7074 70.0465 17.0384 69.5264 18.4766C69.0674 19.7311 68.5166 21.1693 67.874 22.791C67.2314 24.4128 66.5124 26.1416 65.7168 27.9775C65.5332 29.2933 65.5485 30.3031 65.7627 31.0068C66.0075 31.68 66.2982 32.1696 66.6348 32.4756C67.0326 32.8122 67.5221 32.9958 68.1035 33.0264C68.5625 33.0876 69.1133 32.9346 69.7559 32.5674C70.429 32.1696 71.1175 31.6494 71.8213 31.0068C72.5251 30.3643 73.2288 29.6605 73.9326 28.8955C74.667 28.1305 75.3402 27.3809 75.9521 26.6465C76.5641 25.9121 77.0996 25.2542 77.5586 24.6729C78.0176 24.0609 78.3389 23.6325 78.5225 23.3877ZM74.0244 34.7705C73.8102 35.1071 73.5807 35.3213 73.3359 35.4131C73.0605 35.5355 72.8311 35.5508 72.6475 35.459C72.4333 35.3978 72.2956 35.2448 72.2344 35C72.1732 34.7552 72.2344 34.4492 72.418 34.082C72.5098 33.8984 72.724 33.4854 73.0605 32.8428C73.3665 32.2002 73.749 31.4352 74.208 30.5479C74.6364 29.6299 75.1107 28.6507 75.6309 27.6104C76.151 26.5394 76.6406 25.5296 77.0996 24.5811C77.5892 23.6325 78.0329 22.791 78.4307 22.0566C78.8285 21.2917 79.1191 20.7409 79.3027 20.4043C78.9661 20.0983 78.7367 19.8841 78.6143 19.7617C78.4919 19.6087 78.4001 19.3027 78.3389 18.8438C78.2777 18.446 78.3695 17.9258 78.6143 17.2832C78.859 16.6406 79.1803 16.0286 79.5781 15.4473C79.9759 14.8353 80.4196 14.3151 80.9092 13.8867C81.3988 13.4583 81.873 13.2441 82.332 13.2441C83.1888 13.2441 83.7855 13.5195 84.1221 14.0703C84.4893 14.6211 84.7035 15.1872 84.7646 15.7686C84.8258 16.1663 84.7952 16.6712 84.6729 17.2832C84.5505 17.8952 84.321 18.446 83.9844 18.9355C84.0762 18.9967 84.1986 19.0732 84.3516 19.165C84.5046 19.2262 84.7493 19.2568 85.0859 19.2568C85.5755 19.2568 85.9121 19.2262 86.0957 19.165C86.3099 19.1038 86.6312 19.0732 87.0596 19.0732C87.5798 19.0732 88.0081 19.2109 88.3447 19.4863C88.6813 19.7311 88.9567 20.0524 89.1709 20.4502C89.3851 20.8174 89.5381 21.2305 89.6299 21.6895C89.7523 22.1178 89.8288 22.5156 89.8594 22.8828C89.9512 23.6478 89.7523 24.4434 89.2627 25.2695C88.7731 26.0957 88.1764 26.9984 87.4727 27.9775C87.0443 28.5895 86.6159 29.278 86.1875 30.043C85.7591 30.8079 85.5755 31.4964 85.6367 32.1084C85.6979 32.5062 85.805 32.8275 85.958 33.0723C86.111 33.3171 86.5394 33.4395 87.2432 33.4395C87.7633 33.4395 88.3294 33.2559 88.9414 32.8887C89.584 32.4909 90.2266 32.0013 90.8691 31.4199C91.5423 30.8079 92.2002 30.1501 92.8428 29.4463C93.4854 28.7119 94.082 28.0081 94.6328 27.335C95.1836 26.6312 95.6426 26.0039 96.0098 25.4531C96.4076 24.9023 96.6982 24.5046 96.8818 24.2598C97.0348 24.015 97.2337 23.8467 97.4785 23.7549C97.7233 23.6631 97.9375 23.6631 98.1211 23.7549C98.3047 23.8467 98.4118 24.0303 98.4424 24.3057C98.5036 24.5811 98.3965 24.9482 98.1211 25.4072C97.9375 25.7132 97.6162 26.2028 97.1572 26.876C96.7288 27.5492 96.1934 28.2988 95.5508 29.125C94.9388 29.9512 94.2503 30.8079 93.4854 31.6953C92.7204 32.5521 91.9095 33.3477 91.0527 34.082C90.2266 34.7858 89.3851 35.3672 88.5283 35.8262C87.7021 36.2852 86.9066 36.5146 86.1416 36.5146C85.346 36.5146 84.6882 36.3617 84.168 36.0557C83.6478 35.7497 83.2194 35.3825 82.8828 34.9541C82.5768 34.4951 82.3473 34.0055 82.1943 33.4854C82.0719 32.9346 82.026 32.4297 82.0566 31.9707C82.0872 31.6035 82.179 31.221 82.332 30.8232C82.5156 30.3949 82.7145 29.9665 82.9287 29.5381C83.1735 29.0791 83.4183 28.6354 83.6631 28.207C83.9385 27.748 84.1833 27.3044 84.3975 26.876C84.9176 25.9886 85.3307 25.2389 85.6367 24.627C85.9733 23.9844 86.1416 23.4489 86.1416 23.0205C86.1416 22.7451 86.0804 22.5003 85.958 22.2861C85.8356 22.0719 85.6367 21.9648 85.3613 21.9648C85.1777 21.9648 85.04 21.9801 84.9482 22.0107C84.887 22.0107 84.8105 22.0107 84.7188 22.0107C84.6576 22.0107 84.5505 22.026 84.3975 22.0566C84.2751 22.0566 84.0762 22.0566 83.8008 22.0566C83.403 22.0566 83.0664 21.9954 82.791 21.873C82.5156 21.7507 82.2555 21.6589 82.0107 21.5977C81.8883 21.8118 81.613 22.2708 81.1846 22.9746C80.7562 23.6784 80.2513 24.5046 79.6699 25.4531C79.1191 26.4017 78.5225 27.3962 77.8799 28.4365C77.2679 29.4769 76.6865 30.4561 76.1357 31.374C75.585 32.2614 75.126 33.0264 74.7588 33.6689C74.361 34.2809 74.1162 34.6481 74.0244 34.7705ZM118.408 25.8662C117.98 26.4782 117.429 27.2432 116.756 28.1611C116.083 29.0485 115.379 29.9512 114.645 30.8691C113.941 31.7565 113.237 32.5827 112.533 33.3477C111.86 34.082 111.294 34.6022 110.835 34.9082C110.529 35.0918 110.177 35.2448 109.779 35.3672C109.382 35.4896 108.968 35.5661 108.54 35.5967C108.142 35.6273 107.76 35.5967 107.393 35.5049C107.025 35.4437 106.704 35.3213 106.429 35.1377C106.153 34.9235 105.924 34.6175 105.74 34.2197C105.587 33.8831 105.434 33.4395 105.281 32.8887C105.159 32.3379 105.113 31.6494 105.144 30.8232C104.409 32.0472 103.598 32.9958 102.711 33.6689C101.824 34.3115 100.982 34.7858 100.187 35.0918C99.2686 35.4284 98.3506 35.6273 97.4326 35.6885C97.0042 35.6885 96.5452 35.5355 96.0557 35.2295C95.5661 34.9541 95.153 34.5104 94.8164 33.8984C94.4798 33.2559 94.2656 32.445 94.1738 31.4658C94.082 30.4561 94.2044 29.2627 94.541 27.8857C94.9694 26.0192 95.6426 24.321 96.5605 22.791C97.5091 21.2611 98.5342 19.9606 99.6357 18.8896C100.737 17.7881 101.824 16.9619 102.895 16.4111C103.965 15.8604 104.853 15.6156 105.557 15.6768C106.383 15.8298 107.056 16.0745 107.576 16.4111C108.005 16.7171 108.28 17.1761 108.402 17.7881C108.555 18.3695 108.311 19.1497 107.668 20.1289C108.096 20.0371 108.448 19.9759 108.724 19.9453C109.03 19.9147 109.259 19.8994 109.412 19.8994C109.596 19.8994 109.718 19.9147 109.779 19.9453C109.81 20.0065 109.825 20.1442 109.825 20.3584C109.825 20.542 109.779 20.8939 109.688 21.4141C109.596 21.9342 109.458 22.638 109.274 23.5254C109.091 24.4128 108.846 25.5602 108.54 26.9678C108.479 27.2432 108.418 27.5033 108.356 27.748C108.326 27.9622 108.28 28.1917 108.219 28.4365C108.188 28.6507 108.142 28.9108 108.081 29.2168C108.02 29.5228 107.943 29.9053 107.852 30.3643C107.821 30.6396 107.806 30.9456 107.806 31.2822C107.836 31.5882 107.897 31.8789 107.989 32.1543C108.081 32.4297 108.219 32.6592 108.402 32.8428C108.617 32.9958 108.907 33.0723 109.274 33.0723C109.58 33.0723 109.978 32.8887 110.468 32.5215C110.957 32.1237 111.478 31.6341 112.028 31.0527C112.579 30.4408 113.145 29.7829 113.727 29.0791C114.339 28.3447 114.905 27.641 115.425 26.9678C115.945 26.2946 116.404 25.6979 116.802 25.1777C117.23 24.6576 117.536 24.2751 117.72 24.0303C117.965 23.7549 118.209 23.6019 118.454 23.5713C118.699 23.5101 118.882 23.5713 119.005 23.7549C119.127 23.9385 119.143 24.2139 119.051 24.5811C118.99 24.9482 118.775 25.3766 118.408 25.8662ZM104.96 27.8857C105.113 27.2738 105.297 26.5547 105.511 25.7285C105.725 24.9023 105.909 24.1068 106.062 23.3418C106.215 22.5768 106.322 21.9495 106.383 21.46C106.475 20.9398 106.459 20.695 106.337 20.7256C106.184 20.7562 106.016 20.8021 105.832 20.8633C105.679 20.9245 105.48 20.9704 105.235 21.001C104.991 21.0316 104.746 21.0775 104.501 21.1387C104.746 20.6491 104.883 20.2513 104.914 19.9453C104.975 19.6087 104.991 19.3486 104.96 19.165C104.929 18.9508 104.868 18.7826 104.776 18.6602C104.44 18.3848 103.843 18.6143 102.986 19.3486C102.16 20.0524 101.196 21.3682 100.095 23.2959C99.6357 24.0915 99.2686 24.9482 98.9932 25.8662C98.7178 26.7536 98.5189 27.5951 98.3965 28.3906C98.3047 29.1862 98.2894 29.89 98.3506 30.502C98.4118 31.0833 98.5342 31.4658 98.7178 31.6494C99.0544 31.986 99.4368 32.1543 99.8652 32.1543C100.294 32.1237 100.722 32.0013 101.15 31.7871C101.609 31.5423 102.053 31.2363 102.481 30.8691C102.94 30.502 103.338 30.1195 103.675 29.7217C104.042 29.3239 104.333 28.9567 104.547 28.6201C104.792 28.2835 104.929 28.0387 104.96 27.8857ZM127.45 41.5635C127.297 42.2979 127.098 43.2158 126.854 44.3174C126.639 45.4189 126.379 46.5817 126.073 47.8057C125.798 49.0296 125.461 50.2383 125.063 51.4316C124.696 52.6556 124.283 53.7419 123.824 54.6904C123.365 55.6696 122.86 56.4652 122.31 57.0771C121.759 57.6891 121.147 57.9951 120.474 57.9951C119.464 57.9951 118.592 57.6891 117.857 57.0771C117.154 56.4958 116.557 55.7461 116.067 54.8281C115.578 53.9408 115.226 52.9769 115.012 51.9365C114.767 50.8962 114.645 49.9323 114.645 49.0449C114.645 47.821 114.752 46.7959 114.966 45.9697C115.18 45.1742 115.547 44.4092 116.067 43.6748C116.618 42.9404 117.353 42.1602 118.271 41.334C119.188 40.5078 120.367 39.4827 121.805 38.2588C122.508 37.6468 123.182 37.0654 123.824 36.5146C124.467 35.9639 125.079 35.459 125.66 35C125.813 34.388 125.951 33.8219 126.073 33.3018C126.226 32.751 126.349 32.2614 126.44 31.833C125.645 32.904 124.681 33.8066 123.549 34.541C122.447 35.2754 121.177 35.6426 119.739 35.6426C118.424 35.6426 117.353 35.0612 116.526 33.8984C115.731 32.7051 115.333 30.9609 115.333 28.666C115.333 27.5339 115.547 26.2334 115.976 24.7646C116.404 23.2959 117.016 21.9189 117.812 20.6338C118.607 19.3486 119.586 18.2624 120.749 17.375C121.912 16.4876 123.212 16.0439 124.65 16.0439C125.324 16.0439 125.905 16.2122 126.395 16.5488C126.884 16.8854 127.297 17.3138 127.634 17.834C127.97 18.3236 128.23 18.859 128.414 19.4404C128.598 19.9912 128.735 20.5114 128.827 21.001C128.888 20.8174 128.934 20.6338 128.965 20.4502C128.995 20.236 129.041 20.0524 129.103 19.8994C129.409 18.859 129.745 18.1553 130.112 17.7881C130.51 17.3903 131.091 17.1914 131.856 17.1914C132.285 17.1914 132.637 17.2679 132.912 17.4209C133.218 17.5739 133.371 17.7116 133.371 17.834C133.218 18.1706 133.096 18.4307 133.004 18.6143C132.912 18.7979 132.82 18.9967 132.729 19.2109C132.637 19.3945 132.545 19.6393 132.453 19.9453C132.361 20.2513 132.239 20.695 132.086 21.2764C132.025 21.4906 131.902 21.9954 131.719 22.791C131.566 23.556 131.352 24.474 131.076 25.5449C130.831 26.6159 130.556 27.7939 130.25 29.0791C129.975 30.3643 129.699 31.6188 129.424 32.8428C130.281 32.3532 131.168 31.7565 132.086 31.0527C133.004 30.349 133.876 29.6299 134.702 28.8955C135.528 28.1611 136.263 27.4727 136.905 26.8301C137.548 26.1569 138.022 25.6061 138.328 25.1777C138.573 24.8105 138.848 24.5505 139.154 24.3975C139.46 24.2445 139.72 24.1986 139.935 24.2598C140.179 24.2904 140.317 24.4281 140.348 24.6729C140.409 24.887 140.317 25.193 140.072 25.5908C139.368 26.723 138.512 27.8245 137.502 28.8955C136.492 29.9359 135.452 30.915 134.381 31.833C133.34 32.7204 132.315 33.516 131.306 34.2197C130.326 34.8929 129.485 35.4437 128.781 35.8721C128.475 37.249 128.215 38.3659 128.001 39.2227C127.787 40.0794 127.603 40.8597 127.45 41.5635ZM121.667 32.5215C122.31 32.5215 122.906 32.3532 123.457 32.0166C124.038 31.68 124.559 31.2975 125.018 30.8691C125.477 30.4102 125.859 29.9512 126.165 29.4922C126.471 29.0332 126.701 28.666 126.854 28.3906C126.976 28.1152 127.114 27.748 127.267 27.2891C127.45 26.8301 127.588 26.3864 127.68 25.958C127.771 25.5296 127.802 25.1471 127.771 24.8105C127.771 24.474 127.664 24.2904 127.45 24.2598C127.267 24.2292 127.114 24.1068 126.991 23.8926C126.899 23.6784 126.823 23.4336 126.762 23.1582C126.701 22.8828 126.655 22.6074 126.624 22.332C126.624 22.0566 126.609 21.8118 126.578 21.5977C126.425 20.5267 126.165 19.7464 125.798 19.2568C125.431 18.7673 125.018 18.5225 124.559 18.5225C123.794 18.5225 123.059 18.8285 122.355 19.4404C121.682 20.0524 121.07 20.848 120.52 21.8271C119.999 22.7757 119.586 23.8314 119.28 24.9941C118.974 26.1263 118.821 27.2126 118.821 28.2529C118.821 29.5381 119.005 30.5785 119.372 31.374C119.739 32.139 120.504 32.5215 121.667 32.5215ZM119.556 53.8184C120.168 53.8184 120.657 53.3594 121.024 52.4414C121.422 51.554 121.835 50.3301 122.264 48.7695C122.355 48.4023 122.478 47.8669 122.631 47.1631C122.814 46.4899 123.013 45.7096 123.228 44.8223C123.472 43.9349 123.717 42.971 123.962 41.9307C124.207 40.9209 124.467 39.8958 124.742 38.8555C124.497 39.0697 124.237 39.2839 123.962 39.498C123.717 39.7428 123.457 40.0182 123.182 40.3242C122.508 40.9668 121.851 41.5788 121.208 42.1602C120.596 42.7721 120.045 43.3994 119.556 44.042C119.066 44.7152 118.668 45.4342 118.362 46.1992C118.087 46.9642 117.949 47.8516 117.949 48.8613C117.949 49.8711 117.98 50.6973 118.041 51.3398C118.133 51.9824 118.24 52.4873 118.362 52.8545C118.515 53.2217 118.684 53.4665 118.867 53.5889C119.081 53.7419 119.311 53.8184 119.556 53.8184ZM142.643 35.7344C141.48 35.7344 140.531 35.5508 139.797 35.1836C139.062 34.8164 138.481 34.3727 138.053 33.8525C137.655 33.3018 137.364 32.7204 137.181 32.1084C137.028 31.4658 136.951 30.8844 136.951 30.3643C136.951 29.4463 137.028 28.4824 137.181 27.4727C137.334 26.4323 137.517 25.4837 137.731 24.627C137.946 23.7396 138.129 22.9899 138.282 22.3779C138.466 21.766 138.588 21.3835 138.649 21.2305C138.925 20.3431 139.277 19.5781 139.705 18.9355C140.164 18.2624 140.791 17.8034 141.587 17.5586C141.893 17.4974 142.214 17.4362 142.551 17.375C142.826 17.3444 143.102 17.3291 143.377 17.3291C143.683 17.3291 143.958 17.375 144.203 17.4668C143.377 19.5781 142.719 21.3376 142.229 22.7451C141.771 24.1527 141.419 25.3001 141.174 26.1875C140.898 27.1973 140.73 28.0081 140.669 28.6201C140.516 29.9971 140.638 31.0374 141.036 31.7412C141.434 32.445 142.245 32.7969 143.469 32.7969C144.264 32.7969 145.029 32.5062 145.764 31.9248C146.498 31.3128 147.171 30.5326 147.783 29.584C147.691 29.0944 147.646 28.5895 147.646 28.0693C147.646 27.0902 147.722 26.1416 147.875 25.2236C148.059 24.2751 148.257 23.403 148.472 22.6074C148.716 21.7812 148.961 21.0469 149.206 20.4043C149.481 19.7617 149.711 19.2568 149.895 18.8896C150.231 18.1553 150.537 17.7116 150.812 17.5586C151.088 17.375 151.532 17.2679 152.144 17.2373C152.388 17.2067 152.587 17.2067 152.74 17.2373C152.924 17.2373 153.077 17.2526 153.199 17.2832C153.566 17.375 153.75 17.5586 153.75 17.834C153.75 18.3236 153.719 19.0579 153.658 20.0371C153.597 21.0163 153.413 22.026 153.107 23.0664C152.893 23.9232 152.679 24.6576 152.465 25.2695C152.281 25.8509 152.098 26.3558 151.914 26.7842C151.73 27.182 151.547 27.5186 151.363 27.7939C151.18 28.0387 151.011 28.2682 150.858 28.4824C150.92 29.4004 150.996 30.1348 151.088 30.6855C151.18 31.2363 151.287 31.6647 151.409 31.9707C151.562 32.2461 151.73 32.445 151.914 32.5674C152.128 32.6592 152.358 32.7051 152.603 32.7051C153.031 32.7051 153.536 32.5062 154.117 32.1084C154.699 31.68 155.295 31.1598 155.907 30.5479C156.55 29.9053 157.177 29.2168 157.789 28.4824C158.432 27.7174 159.013 26.9984 159.533 26.3252C160.053 25.652 160.497 25.0706 160.864 24.5811C161.231 24.0609 161.461 23.7396 161.553 23.6172C161.767 23.3418 161.966 23.1735 162.149 23.1123C162.364 23.0511 162.532 23.0817 162.654 23.2041C162.777 23.2959 162.838 23.4642 162.838 23.709C162.868 23.9232 162.807 24.168 162.654 24.4434C162.042 25.6061 161.277 26.8454 160.359 28.1611C159.472 29.4463 158.508 30.6396 157.468 31.7412C156.458 32.8428 155.433 33.7607 154.393 34.4951C153.352 35.2295 152.373 35.5967 151.455 35.5967C150.629 35.5967 149.971 35.3213 149.481 34.7705C149.022 34.1891 148.625 33.363 148.288 32.292C147.584 33.3936 146.758 34.2503 145.81 34.8623C144.861 35.4437 143.805 35.7344 142.643 35.7344ZM155.678 54.5986C155.464 54.5068 155.249 54.3691 155.035 54.1855C154.852 54.0326 154.668 53.8337 154.484 53.5889C154.301 53.3747 154.148 53.0993 154.025 52.7627C154.882 49.4886 155.617 46.6429 156.229 44.2256C156.81 41.8083 157.315 39.7887 157.743 38.167C158.202 36.2699 158.6 34.6787 158.937 33.3936C159.243 32.1696 159.549 30.9456 159.854 29.7217C160.099 28.6507 160.359 27.5033 160.635 26.2793C160.941 25.0553 161.216 23.9079 161.461 22.8369C161.767 21.6436 161.951 20.695 162.012 19.9912C162.073 19.2568 161.843 18.6296 161.323 18.1094C161.69 17.8034 162.058 17.5739 162.425 17.4209C162.823 17.2373 163.174 17.1149 163.48 17.0537C163.817 16.9619 164.154 16.9313 164.49 16.9619C165.316 17.0231 165.821 17.2832 166.005 17.7422C166.219 18.2012 166.25 18.9355 166.097 19.9453C166.066 20.0983 166.035 20.236 166.005 20.3584C166.005 20.4502 166.005 20.5573 166.005 20.6797C166.433 20.1901 166.908 19.7158 167.428 19.2568C167.948 18.7979 168.468 18.3848 168.988 18.0176C169.539 17.6504 170.09 17.3597 170.641 17.1455C171.222 16.9007 171.773 16.7783 172.293 16.7783C172.997 16.7783 173.563 16.9619 173.991 17.3291C174.45 17.6657 174.802 18.1247 175.047 18.7061C175.292 19.2874 175.445 19.9453 175.506 20.6797C175.567 21.3835 175.582 22.0872 175.552 22.791C175.521 23.556 175.383 24.3669 175.139 25.2236C174.924 26.0804 174.618 26.9525 174.221 27.8398C173.823 28.7272 173.364 29.5993 172.844 30.4561C172.324 31.3128 171.773 32.1084 171.191 32.8428C171.314 32.8734 171.39 32.904 171.421 32.9346C171.451 32.9346 171.467 32.9499 171.467 32.9805C171.467 32.9805 171.482 32.9958 171.513 33.0264C171.574 33.0264 171.681 33.0264 171.834 33.0264C172.538 33.0264 173.257 32.8428 173.991 32.4756C174.726 32.1084 175.445 31.6494 176.148 31.0986C176.852 30.5173 177.525 29.89 178.168 29.2168C178.841 28.5436 179.438 27.901 179.958 27.2891C180.509 26.6465 180.968 26.0804 181.335 25.5908C181.702 25.0706 181.978 24.7035 182.161 24.4893C182.406 24.1833 182.635 23.9844 182.85 23.8926C183.064 23.7702 183.232 23.7549 183.354 23.8467C183.477 23.9385 183.538 24.1221 183.538 24.3975C183.538 24.6423 183.446 24.9635 183.263 25.3613C183.14 25.6367 182.88 26.0804 182.482 26.6924C182.085 27.3044 181.595 27.9928 181.014 28.7578C180.432 29.5228 179.759 30.3184 178.994 31.1445C178.26 31.9707 177.479 32.7204 176.653 33.3936C175.827 34.0667 174.97 34.6175 174.083 35.0459C173.226 35.5049 172.385 35.7344 171.559 35.7344C171.161 35.7344 170.84 35.7191 170.595 35.6885C170.35 35.6579 170.136 35.5967 169.952 35.5049C169.799 35.4437 169.646 35.3672 169.493 35.2754C169.34 35.2142 169.157 35.1377 168.942 35.0459C168.392 35.4743 167.826 35.7956 167.244 36.0098C166.663 36.2546 166.097 36.377 165.546 36.377C165.026 36.377 164.567 36.2852 164.169 36.1016C163.802 35.9486 163.496 35.7191 163.251 35.4131C163.006 35.1377 162.807 34.8317 162.654 34.4951C162.501 34.1279 162.379 33.776 162.287 33.4395C162.257 33.5618 162.226 33.6689 162.195 33.7607C162.195 33.8525 162.18 33.9749 162.149 34.1279C161.782 35.5967 161.4 37.2949 161.002 39.2227C160.665 40.875 160.252 42.8792 159.763 45.2354C159.304 47.6221 158.814 50.3301 158.294 53.3594C158.11 54.1855 157.789 54.6598 157.33 54.7822C156.84 54.9046 156.29 54.8434 155.678 54.5986ZM164.077 26.1416C163.924 26.6618 163.756 27.2738 163.572 27.9775C163.419 28.6507 163.236 29.4616 163.021 30.4102C163.266 30.2266 163.542 30.0889 163.848 29.9971C164.154 29.9053 164.46 29.8594 164.766 29.8594C165.102 29.8594 165.531 30.043 166.051 30.4102C166.571 30.7467 167.198 31.1139 167.933 31.5117C168.392 30.9609 168.866 30.349 169.355 29.6758C169.876 28.972 170.335 28.2529 170.732 27.5186C171.161 26.7842 171.513 26.0345 171.788 25.2695C172.094 24.5046 172.262 23.7702 172.293 23.0664C172.354 22.1484 172.247 21.4294 171.972 20.9092C171.696 20.389 171.237 20.1289 170.595 20.1289C169.646 20.1289 168.606 20.695 167.474 21.8271C166.372 22.9287 165.24 24.3669 164.077 26.1416ZM197.124 23.3877C197.246 23.2041 197.399 23.097 197.583 23.0664C197.797 23.0052 197.965 23.0205 198.088 23.1123C198.21 23.2041 198.271 23.3571 198.271 23.5713C198.302 23.7855 198.226 24.0762 198.042 24.4434C197.43 25.6061 196.619 26.8607 195.609 28.207C194.63 29.5534 193.59 30.8232 192.488 32.0166C191.387 33.1794 190.316 34.1432 189.275 34.9082C188.235 35.6732 187.363 36.0557 186.659 36.0557C185.649 36.0557 184.808 35.8568 184.135 35.459C183.462 35.0612 182.926 34.5716 182.528 33.9902C182.161 33.4089 181.901 32.7816 181.748 32.1084C181.595 31.4046 181.549 30.762 181.61 30.1807C181.641 29.6911 181.748 28.819 181.932 27.5645C182.115 26.2793 182.36 24.8105 182.666 23.1582C182.972 21.4753 183.309 19.6852 183.676 17.7881C184.074 15.8604 184.487 14.0091 184.915 12.2344C184.395 12.2956 183.875 12.3568 183.354 12.418C182.834 12.4792 182.36 12.5098 181.932 12.5098C180.952 12.5098 180.035 12.4027 179.178 12.1885C178.29 11.9437 177.632 11.7142 177.204 11.5C176.959 11.3776 176.852 11.2093 176.883 10.9951C176.913 10.7503 177.005 10.5208 177.158 10.3066C177.311 10.0618 177.51 9.86296 177.755 9.70996C177.969 9.52637 178.168 9.43457 178.352 9.43457C178.933 9.49577 179.56 9.55697 180.233 9.61816C180.907 9.64876 181.641 9.64876 182.437 9.61816C183.018 9.58757 183.569 9.54167 184.089 9.48047C184.64 9.41927 185.175 9.34277 185.695 9.25098C186.093 7.78223 186.476 6.51237 186.843 5.44141C187.241 4.33984 187.592 3.57487 187.898 3.14648C187.99 2.99349 188.189 2.87109 188.495 2.7793C188.832 2.6569 189.184 2.5804 189.551 2.5498C189.918 2.48861 190.27 2.48861 190.606 2.5498C190.943 2.5804 191.188 2.6875 191.341 2.87109C191.494 3.11589 191.555 3.74316 191.524 4.75293C191.494 5.7627 191.326 7.04785 191.02 8.6084C192.305 8.6084 193.437 8.6849 194.416 8.83789C195.426 8.96029 196.283 9.11328 196.986 9.29688C197.69 9.44987 198.256 9.61816 198.685 9.80176C199.113 9.95475 199.434 10.0618 199.648 10.123C199.863 10.1842 199.97 10.3372 199.97 10.582C200 10.8268 199.954 11.0869 199.832 11.3623C199.74 11.6071 199.572 11.8213 199.327 12.0049C199.082 12.1885 198.807 12.2497 198.501 12.1885C198.195 12.1579 197.843 12.0967 197.445 12.0049C197.078 11.9131 196.619 11.8366 196.068 11.7754C195.548 11.7142 194.921 11.653 194.187 11.5918C193.452 11.5306 192.595 11.5 191.616 11.5C191.433 11.5 191.218 11.5153 190.974 11.5459C190.759 11.5459 190.53 11.5459 190.285 11.5459C190.163 12.0355 190.04 12.5251 189.918 13.0146C189.826 13.4736 189.688 13.9632 189.505 14.4834C189.107 15.7074 188.648 17.0384 188.128 18.4766C187.669 19.7311 187.118 21.1693 186.476 22.791C185.833 24.4128 185.114 26.1416 184.318 27.9775C184.135 29.2933 184.15 30.3031 184.364 31.0068C184.609 31.68 184.9 32.1696 185.236 32.4756C185.634 32.8122 186.124 32.9958 186.705 33.0264C187.164 33.0876 187.715 32.9346 188.357 32.5674C189.031 32.1696 189.719 31.6494 190.423 31.0068C191.127 30.3643 191.83 29.6605 192.534 28.8955C193.269 28.1305 193.942 27.3809 194.554 26.6465C195.166 25.9121 195.701 25.2542 196.16 24.6729C196.619 24.0609 196.94 23.6325 197.124 23.3877ZM217.916 25.8662C217.488 26.4782 216.937 27.2432 216.264 28.1611C215.59 29.0485 214.887 29.9512 214.152 30.8691C213.449 31.7565 212.745 32.5827 212.041 33.3477C211.368 34.082 210.802 34.6022 210.343 34.9082C210.037 35.0918 209.685 35.2448 209.287 35.3672C208.889 35.4896 208.476 35.5661 208.048 35.5967C207.65 35.6273 207.268 35.5967 206.9 35.5049C206.533 35.4437 206.212 35.3213 205.937 35.1377C205.661 34.9235 205.432 34.6175 205.248 34.2197C205.095 33.8831 204.942 33.4395 204.789 32.8887C204.667 32.3379 204.621 31.6494 204.651 30.8232C203.917 32.0472 203.106 32.9958 202.219 33.6689C201.331 34.3115 200.49 34.7858 199.694 35.0918C198.776 35.4284 197.858 35.6273 196.94 35.6885C196.512 35.6885 196.053 35.5355 195.563 35.2295C195.074 34.9541 194.661 34.5104 194.324 33.8984C193.988 33.2559 193.773 32.445 193.682 31.4658C193.59 30.4561 193.712 29.2627 194.049 27.8857C194.477 26.0192 195.15 24.321 196.068 22.791C197.017 21.2611 198.042 19.9606 199.144 18.8896C200.245 17.7881 201.331 16.9619 202.402 16.4111C203.473 15.8604 204.361 15.6156 205.064 15.6768C205.891 15.8298 206.564 16.0745 207.084 16.4111C207.512 16.7171 207.788 17.1761 207.91 17.7881C208.063 18.3695 207.818 19.1497 207.176 20.1289C207.604 20.0371 207.956 19.9759 208.231 19.9453C208.537 19.9147 208.767 19.8994 208.92 19.8994C209.104 19.8994 209.226 19.9147 209.287 19.9453C209.318 20.0065 209.333 20.1442 209.333 20.3584C209.333 20.542 209.287 20.8939 209.195 21.4141C209.104 21.9342 208.966 22.638 208.782 23.5254C208.599 24.4128 208.354 25.5602 208.048 26.9678C207.987 27.2432 207.925 27.5033 207.864 27.748C207.834 27.9622 207.788 28.1917 207.727 28.4365C207.696 28.6507 207.65 28.9108 207.589 29.2168C207.528 29.5228 207.451 29.9053 207.359 30.3643C207.329 30.6396 207.313 30.9456 207.313 31.2822C207.344 31.5882 207.405 31.8789 207.497 32.1543C207.589 32.4297 207.727 32.6592 207.91 32.8428C208.124 32.9958 208.415 33.0723 208.782 33.0723C209.088 33.0723 209.486 32.8887 209.976 32.5215C210.465 32.1237 210.985 31.6341 211.536 31.0527C212.087 30.4408 212.653 29.7829 213.234 29.0791C213.846 28.3447 214.412 27.641 214.933 26.9678C215.453 26.2946 215.912 25.6979 216.31 25.1777C216.738 24.6576 217.044 24.2751 217.228 24.0303C217.472 23.7549 217.717 23.6019 217.962 23.5713C218.207 23.5101 218.39 23.5713 218.513 23.7549C218.635 23.9385 218.65 24.2139 218.559 24.5811C218.497 24.9482 218.283 25.3766 217.916 25.8662ZM204.468 27.8857C204.621 27.2738 204.804 26.5547 205.019 25.7285C205.233 24.9023 205.416 24.1068 205.569 23.3418C205.722 22.5768 205.829 21.9495 205.891 21.46C205.982 20.9398 205.967 20.695 205.845 20.7256C205.692 20.7562 205.523 20.8021 205.34 20.8633C205.187 20.9245 204.988 20.9704 204.743 21.001C204.498 21.0316 204.254 21.0775 204.009 21.1387C204.254 20.6491 204.391 20.2513 204.422 19.9453C204.483 19.6087 204.498 19.3486 204.468 19.165C204.437 18.9508 204.376 18.7826 204.284 18.6602C203.948 18.3848 203.351 18.6143 202.494 19.3486C201.668 20.0524 200.704 21.3682 199.603 23.2959C199.144 24.0915 198.776 24.9482 198.501 25.8662C198.226 26.7536 198.027 27.5951 197.904 28.3906C197.812 29.1862 197.797 29.89 197.858 30.502C197.92 31.0833 198.042 31.4658 198.226 31.6494C198.562 31.986 198.945 32.1543 199.373 32.1543C199.801 32.1237 200.23 32.0013 200.658 31.7871C201.117 31.5423 201.561 31.2363 201.989 30.8691C202.448 30.502 202.846 30.1195 203.183 29.7217C203.55 29.3239 203.84 28.9567 204.055 28.6201C204.299 28.2835 204.437 28.0387 204.468 27.8857Z" fill="white"/>
</svg>
